<svg width="44" height="31" viewBox="0 0 44 31" fill="none" xmlns="http://www.w3.org/2000/svg">
<path d="M40.922 11.376C40.8007 11.2547 40.5753 11.09 40.246 10.882C39.934 10.674 39.544 10.4747 39.076 10.284C38.6253 10.0933 38.1313 9.92867 37.594 9.79C37.0567 9.634 36.5107 9.556 35.956 9.556C34.9853 9.556 34.2487 9.738 33.746 10.102C33.2607 10.466 33.018 10.9773 33.018 11.636C33.018 12.1387 33.174 12.5373 33.486 12.832C33.798 13.1267 34.266 13.378 34.89 13.586C35.514 13.794 36.294 14.0193 37.23 14.262C38.4433 14.5567 39.492 14.9207 40.376 15.354C41.2773 15.77 41.962 16.3247 42.43 17.018C42.9153 17.694 43.158 18.5953 43.158 19.722C43.158 20.71 42.976 21.5593 42.612 22.27C42.248 22.9633 41.7453 23.5267 41.104 23.96C40.4627 24.3933 39.7347 24.714 38.92 24.922C38.1053 25.1127 37.2387 25.208 36.32 25.208C35.4013 25.208 34.4827 25.1127 33.564 24.922C32.6453 24.7313 31.7613 24.4627 30.912 24.116C30.0627 23.752 29.2827 23.3187 28.572 22.816L30.158 19.722C30.314 19.878 30.5913 20.086 30.99 20.346C31.3887 20.5887 31.874 20.84 32.446 21.1C33.018 21.3427 33.642 21.5507 34.318 21.724C34.994 21.8973 35.6787 21.984 36.372 21.984C37.3427 21.984 38.0793 21.8193 38.582 21.49C39.0847 21.1607 39.336 20.6927 39.336 20.086C39.336 19.5313 39.1367 19.098 38.738 18.786C38.3393 18.474 37.7847 18.2053 37.074 17.98C36.3633 17.7373 35.5227 17.4773 34.552 17.2C33.3907 16.8707 32.42 16.5067 31.64 16.108C30.86 15.692 30.2793 15.172 29.898 14.548C29.5167 13.924 29.326 13.144 29.326 12.208C29.326 10.9427 29.6207 9.88533 30.21 9.036C30.8167 8.16933 31.6313 7.51933 32.654 7.086C33.6767 6.63533 34.812 6.41 36.06 6.41C36.9267 6.41 37.7413 6.50533 38.504 6.696C39.284 6.88667 40.012 7.138 40.688 7.45C41.364 7.762 41.9707 8.1 42.508 8.464L40.922 11.376Z" fill="#BBBBBB"/>
<path d="M8.242 6.592H11.57L13.676 12.702L15.808 6.592H19.11L15.938 14.99L18.278 20.866L23.504 6.54H27.404L20.02 25H16.926L13.676 17.252L10.452 25H7.358L0 6.54H3.848L9.1 20.866L11.388 14.99L8.242 6.592Z" fill="#2196F3"/>
</svg>
